<svg xmlns="http://www.w3.org/2000/svg" width="56" height="47"><path fill="#1C9CD8" d="M51.158 14.816H38.69V4.761C38.69 2.148 36.53 0 33.903 0H4.786C2.16 0 0 2.148 0 4.76v17.43c0 2.614 2.16 4.761 4.786 4.761H7.62l3.57 4.761c.2.335.605.472 1.01.472.406 0 .743-.199 1.012-.472l3.569-4.76h.537v10.055c0 2.613 2.159 4.76 4.786 4.76H39.22l3.57 4.761c.199.335.605.472 1.01.472.406 0 .743-.199 1.011-.472l3.57-4.76h2.833c2.627 0 4.786-2.148 4.786-4.761v-17.43c.006-2.62-2.147-4.76-4.842-4.76zm-35.046 9.652c-.405 0-.742.199-1.01.472l-2.965 3.886-2.964-3.886c-.2-.335-.605-.472-1.01-.472H4.654a2.266 2.266 0 0 1-2.29-2.278V4.76a2.266 2.266 0 0 1 2.29-2.277h29.117c1.28 0 2.29 1.005 2.29 2.278V22.19a2.266 2.266 0 0 1-2.29 2.278h-17.66zm37.404 12.539a2.266 2.266 0 0 1-2.29 2.278H47.72c-.405 0-.742.198-1.01.471l-2.965 3.886-2.964-3.886c-.2-.335-.605-.471-1.01-.471H22.11a2.266 2.266 0 0 1-2.291-2.278V26.95h14.084c.943 0 1.822-.267 2.559-.739h9.435a1.2 1.2 0 0 0 1.21-1.204 1.2 1.2 0 0 0-1.21-1.204h-7.413c.2-.472.268-1.006.268-1.608v-4.829H51.22c1.28 0 2.29 1.006 2.29 2.278v17.362h.006zm-6.47-5.096a1.2 1.2 0 0 1-1.211 1.204H27.5a1.2 1.2 0 0 1-1.21-1.204 1.2 1.2 0 0 1 1.21-1.205h18.334a1.2 1.2 0 0 1 1.21 1.205zM28.373 18.298H10.11a1.2 1.2 0 0 1-1.21-1.204 1.2 1.2 0 0 1 1.21-1.204h18.265a1.2 1.2 0 0 1 1.211 1.204c.069.67-.537 1.204-1.21 1.204zM8.9 10.124a1.2 1.2 0 0 1 1.21-1.204h10.983a1.2 1.2 0 0 1 1.21 1.204 1.2 1.2 0 0 1-1.21 1.204H10.109a1.2 1.2 0 0 1-1.21-1.204z"/></svg>