<svg xmlns="http://www.w3.org/2000/svg" width="54" height="58"><g fill="#E4087E"><path d="M28.601 35.99a3.336 3.336 0 0 0 2.443-1.368l8.779-12.135a.938.938 0 0 0-1.31-1.31l-12.138 8.78a3.337 3.337 0 0 0-.397 5.064 3.332 3.332 0 0 0 2.623.969zm-1.721-3.445c.032-.428.252-.82.597-1.07l7.404-5.357-5.355 7.402a1.467 1.467 0 0 1-2.223.176 1.466 1.466 0 0 1-.423-1.15z"/><path d="M49.998 18.912c-.01-.02-.01-.042-.02-.062-.012-.02-.03-.03-.043-.048a26.266 26.266 0 0 0-3.418-4.649l2.06-2.075 1.355 1.366L54 9.343l-4.068-4.1-4.068 4.1 1.357 1.368-2.06 2.075A26.052 26.052 0 0 0 40.55 9.34c-.018-.013-.029-.031-.048-.043-.02-.011-.041-.01-.061-.02a25.566 25.566 0 0 0-9.85-3.291V4.833h1.438a2.41 2.41 0 0 0 2.397-2.416A2.41 2.41 0 0 0 32.028 0h-8.63A2.41 2.41 0 0 0 21 2.417a2.41 2.41 0 0 0 2.397 2.416h1.438v1.118a26.09 26.09 0 0 0-3.091.517.966.966 0 0 0-.72 1.158.957.957 0 0 0 1.148.726 24.205 24.205 0 0 1 2.666-.461l1.029-.08c.314-.024.604-.042.886-.055v1.91c0 .535.428.967.959.967.53 0 .959-.432.959-.966V7.762a23.637 23.637 0 0 1 10.025 2.75l-.945 1.65a.971.971 0 0 0 .351 1.321.956.956 0 0 0 1.31-.354l.942-1.646c3 1.919 5.55 4.488 7.453 7.513l-1.633.95a.97.97 0 0 0-.35 1.32.957.957 0 0 0 1.31.354l1.637-.953a24.144 24.144 0 0 1 2.732 10.265H49.61a.962.962 0 0 0-.959.967c0 .535.43.967.96.967h1.893a24.144 24.144 0 0 1-2.732 10.265l-1.637-.953a.953.953 0 0 0-1.31.353.971.971 0 0 0 .352 1.32l1.633.951a24.257 24.257 0 0 1-7.453 7.513l-.942-1.646a.953.953 0 0 0-1.31-.354.97.97 0 0 0-.351 1.32l.945 1.65a23.637 23.637 0 0 1-10.026 2.75v-1.902a.962.962 0 0 0-.958-.966.962.962 0 0 0-.96.966v1.91a24.012 24.012 0 0 1-4.579-.596.954.954 0 0 0-1.148.726.966.966 0 0 0 .72 1.158 25.71 25.71 0 0 0 5.808.669c.047 0 .092-.003.14-.004.006 0 .011.004.017.004.007 0 .014-.005.022-.005a25.563 25.563 0 0 0 12.675-3.454c.03-.013.061-.02.09-.037.02-.012.03-.03.048-.043a26.185 26.185 0 0 0 9.371-9.436c.018-.026.041-.046.058-.075.011-.02.01-.042.02-.062A26.076 26.076 0 0 0 53.446 31.9c0-4.727-1.26-9.16-3.448-12.988zm-.066-10.936l1.355 1.367-1.355 1.368-1.357-1.368 1.357-1.367zM26.754 5.82V2.9h-3.356a.483.483 0 0 1 0-.967h8.63a.483.483 0 0 1 0 .967h-3.356v2.92c-.334-.013-.652-.02-.96-.02l-.084.002-.072-.002c-.157 0-.314.01-.471.014-.112.002-.216.001-.331.006zM19 14h-5a1 1 0 1 0 0 2h5a1 1 0 1 0 0-2zm0 6H9a1 1 0 1 0 0 2h10a1 1 0 1 0 0-2zm.059 7H4.94c-.52 0-.941.447-.941 1 0 .553.42 1 .941 1h14.12c.52 0 .941-.447.941-1 0-.553-.42-1-.941-1zm-.011 7H.952C.426 34 0 34.447 0 35c0 .553.426 1 .952 1h18.096c.526 0 .952-.447.952-1 0-.553-.426-1-.952-1zm.019 7H6.933C6.417 41 6 41.447 6 42c0 .553.417 1 .933 1h12.134c.516 0 .933-.447.933-1 0-.553-.417-1-.933-1zM19 47h-7a1 1 0 1 0 0 2h7a1 1 0 1 0 0-2z"/></g></svg>