<svg xmlns="http://www.w3.org/2000/svg" width="32" height="32"><g fill="#302C7E"><path d="M7.29 16c0-.332.012-.67.039-1.003a.534.534 0 0 0-1.064-.084c-.028.36-.043.726-.043 1.086v.012c0 .294.239.527.534.527A.537.537 0 0 0 7.289 16zm5.68 10.022a8.995 8.995 0 0 1-.863-.5.534.534 0 0 0-.585.892c.311.204.635.391.965.559a.533.533 0 0 0 .482-.95zm.518-21.434a9.82 9.82 0 0 0-1.022.45.533.533 0 1 0 .484.95c.298-.15.605-.286.912-.4a.534.534 0 0 0-.374-1zm-3.703 2.42c-.258.26-.507.537-.742.823a.533.533 0 1 0 .826.676c.213-.261.44-.512.673-.748a.533.533 0 1 0-.757-.751zm-1.758 3.373a.531.531 0 0 0-.703.274c-.146.334-.28.68-.399 1.03a.535.535 0 0 0 1.01.342c.109-.32.232-.637.366-.943a.534.534 0 0 0-.274-.703zm-.371 8.642a.533.533 0 1 0-1.035.258c.088.355.193.71.312 1.057a.533.533 0 1 0 1.009-.345 12.121 12.121 0 0 1-.286-.97zm1.625 3.68a.534.534 0 1 0-.884.597c.21.309.431.607.66.887a.532.532 0 0 0 .751.074.534.534 0 0 0 .075-.75 11.396 11.396 0 0 1-.602-.809zm7.519 4.243c-.331 0-.665-.02-.99-.059a.532.532 0 1 0-.127 1.06 9.45 9.45 0 0 0 1.118.066h.044c.295 0 .511-.239.511-.533 0-.294-.261-.534-.556-.534zM24.307 9.28a.532.532 0 0 0 .74.142.534.534 0 0 0 .143-.74 11.947 11.947 0 0 0-.662-.887.534.534 0 0 0-.824.678c.212.259.415.53.603.807zm-4.361 18.16a.533.533 0 0 0 .188-.035 9.87 9.87 0 0 0 1.021-.453.533.533 0 1 0-.487-.949 8.72 8.72 0 0 1-.91.404.533.533 0 0 0 .188 1.032zm.665-21.47c.295.148.585.316.864.498a.535.535 0 0 0 .582-.893 9.976 9.976 0 0 0-.966-.557.532.532 0 1 0-.48.952zm-3.833-1.448v-.533a.523.523 0 0 0-.523.533c0 .294.25.533.545.533.323 0 .65.02.97.056a.533.533 0 0 0 .124-1.06 12.552 12.552 0 0 0-1.11-.062l-.006.533zm6.675 20.613a.533.533 0 0 0 .38-.159c.257-.26.506-.538.74-.824a.533.533 0 1 0-.828-.673c-.212.26-.437.512-.671.749a.533.533 0 0 0 .38.907zM26.311 16c0 .33-.012.66-.037.98a.533.533 0 1 0 1.063.083c.027-.349.04-.707.04-1.064v-.034a.519.519 0 0 0-.533-.516.548.548 0 0 0-.533.551zm-.372-3.044a.533.533 0 1 0 1.034-.26c-.089-.354-.194-.71-.313-1.057a.534.534 0 0 0-1.01.347c.11.318.207.644.289.97zm-.355 8.643a.534.534 0 0 0 .702-.276c.145-.336.279-.682.396-1.03a.533.533 0 1 0-1.01-.34c-.108.318-.23.636-.365.944a.535.535 0 0 0 .277.702z"/><path d="M28.983 0H24.35c-1.124 0-2.12.62-2.637 1.586A12.149 12.149 0 0 0 16.8.533c-.545 0-1.08.04-1.608.112A11.938 11.938 0 0 0 13.6.533c-2.604 0-5.04.839-7.11 2.288l-.001.002a14.243 14.243 0 0 0-2.841 2.65c-.025.023-.044.05-.064.077a15.721 15.721 0 0 0-2.06 3.348c-.378.83-.695 1.701-.938 2.61a.534.534 0 0 0-.041.166A17.418 17.418 0 0 0 0 16a17.147 17.147 0 0 0 1.317 6.634 15.917 15.917 0 0 0 1.849 3.273c.02.027.036.056.06.079.74.994 1.59 1.88 2.527 2.634.027.03.06.053.094.077 2.201 1.744 4.873 2.77 7.753 2.77.518 0 1.042-.039 1.592-.112.527.071 1.063.112 1.608.112 1.71 0 3.37-.373 4.913-1.053A2.984 2.984 0 0 0 24.35 32h4.633A3.02 3.02 0 0 0 32 28.983V3.017A3.02 3.02 0 0 0 28.983 0zm-6.45 3.201c.116.069.23.142.344.214a12.21 12.21 0 0 1 .785.544c.223.168.44.343.653.527.033.028.067.054.1.083.157.138.306.289.456.436a13.74 13.74 0 0 1 1.345 1.514c.095.125.194.248.285.377l.006.008c.167.234.323.477.476.722.036.057.074.111.109.168.037.062.076.122.113.185.188.32.364.65.53.989V23.03a14.82 14.82 0 0 1-.53.99l-.113.184c-.035.057-.073.112-.109.168-.153.246-.309.489-.476.722l-.006.008c-.091.13-.19.252-.285.377-.155.203-.313.403-.478.595a14.22 14.22 0 0 1-.867.92c-.151.146-.3.297-.457.436-.032.029-.066.054-.099.083a12.754 12.754 0 0 1-.924.723 12.5 12.5 0 0 1-.514.347c-.114.072-.228.146-.344.214-.162.096-.327.184-.492.272-1.618.859-3.399 1.331-5.241 1.331-.423 0-.842-.025-1.255-.073l-.212-.029-.079-.011a11.15 11.15 0 0 1-.552-.092l-.04-.008a10.938 10.938 0 0 1-1.09-.273c-.044-.014-.087-.03-.13-.043-.141-.045-.282-.09-.42-.141-.1-.036-.196-.076-.293-.115-.084-.032-.167-.063-.25-.098-2.867-1.214-5.244-3.599-6.69-6.647l-.039-.083a14.4 14.4 0 0 1-.225-.506l-.082-.202a14.668 14.668 0 0 1-.158-.402l-.094-.26a11.42 11.42 0 0 1-.217-.654 16.896 16.896 0 0 1-.185-.654 13.647 13.647 0 0 1-.156-.663 22.136 22.136 0 0 1-.13-.67c-.02-.118-.038-.238-.056-.358-.016-.107-.032-.214-.045-.322-.017-.128-.03-.258-.043-.387-.01-.1-.022-.2-.031-.302a15.364 15.364 0 0 1-.03-.448c-.005-.084-.012-.167-.015-.251a16.335 16.335 0 0 1 0-1.417c.003-.085.01-.168.015-.252.008-.15.017-.3.03-.448.008-.1.02-.201.03-.302.014-.129.027-.259.043-.387a19.963 19.963 0 0 1 .101-.68l.061-.327a14.439 14.439 0 0 1 .226-1.005 14.991 14.991 0 0 1 .4-1.309l.094-.26c.05-.135.105-.269.159-.402.027-.067.053-.135.081-.202.072-.17.148-.338.226-.505l.038-.083c1.446-3.05 3.824-5.435 6.69-6.648.083-.035.167-.065.25-.098.098-.038.195-.078.293-.114.139-.05.28-.097.42-.142.044-.013.087-.029.13-.042.162-.05.326-.095.49-.137l.07-.018a10.7 10.7 0 0 1 .531-.118l.04-.008c.182-.035.366-.066.552-.093.026-.003.052-.008.078-.01l.212-.03c.415-.046.834-.071 1.257-.071 1.842 0 3.623.472 5.24 1.33.166.087.33.175.493.271zm3.067 1.01v-.8c0-.116.095-.211.212-.211h1.71c.116 0 .211.095.211.212v3.387c-.034-.053-.073-.104-.108-.156-.04-.06-.081-.117-.122-.175-.09-.13-.178-.263-.272-.39-.084-.115-.173-.224-.26-.336a17.911 17.911 0 0 0-.124-.158l-.16-.2a15.684 15.684 0 0 0-.38-.434c-.046-.051-.09-.105-.137-.156-.02-.021-.041-.04-.061-.062-.139-.149-.28-.293-.425-.434-.029-.028-.055-.058-.084-.086zm0 23.577c.029-.027.055-.058.084-.086.144-.141.286-.285.425-.434l.06-.062c.048-.05.092-.104.138-.156.128-.143.256-.286.38-.435.054-.065.107-.132.16-.199l.124-.158c.087-.112.176-.221.26-.336.094-.127.182-.26.272-.39.041-.058.082-.115.122-.175.035-.052.073-.103.108-.156v3.387a.212.212 0 0 1-.211.212h-1.71a.212.212 0 0 1-.212-.212v-.8zM2.628 22.933h2.02c.084.19.17.377.26.561l.12.235c.11.215.223.427.342.635.043.077.085.154.13.23.094.16.192.316.291.472H3.88a14.755 14.755 0 0 1-1.25-2.133zM2.383 9.6h2.041c-.094.234-.182.47-.266.709l-.068.196c-.077.23-.149.46-.216.695H1.79c.17-.55.368-1.083.593-1.6zM4.28 6.4h1.868c-.065.093-.13.186-.193.28-.158.237-.31.478-.456.725l-.13.23c-.118.209-.232.421-.342.636-.04.078-.08.155-.118.234l-.015.028H2.895c.404-.76.87-1.473 1.385-2.133zM1.067 16c0-.36.019-.714.041-1.067h2.127l-.001.026c-.02.344-.034.69-.034 1.041 0 .179.006.356.012.533H1.087c-.005-.178-.02-.353-.02-.533zm2.206 1.6c.02.225.046.447.075.67l.005.048c.04.297.088.59.141.882H1.391a16.3 16.3 0 0 1-.239-1.6h2.12zm.33-5.333c-.014.063-.025.127-.039.19l-.042.21c-.065.335-.124.672-.169 1.015l-.005.049-.016.136H1.215c.07-.543.16-1.079.282-1.6h2.106zm.128 8c.016.065.032.131.05.197a16.706 16.706 0 0 0 .31 1.03l.068.197.061.175H2.164a15.633 15.633 0 0 1-.524-1.6h2.09zm7.426-18.334a12.3 12.3 0 0 0-.503.277c-.1.058-.203.115-.302.176-.146.09-.29.185-.432.28H8.893a11.23 11.23 0 0 1 2.442-.83c-.06.03-.118.066-.178.097zm-4.1 1.8H8.53a13.57 13.57 0 0 0-.392.352c-.108.103-.213.209-.319.314-.104.106-.208.212-.31.32-.098.107-.198.212-.295.32-.084.096-.166.196-.248.294H5.205a12.925 12.925 0 0 1 1.852-1.6zm-2.35 22.4h1.83a14.772 14.772 0 0 0 .678.827c.096.11.196.215.295.32.102.109.205.215.31.32.043.044.085.09.128.133H6.344a13.245 13.245 0 0 1-1.638-1.6zm6.628 4.032a11.377 11.377 0 0 1-3.45-1.365h1.29c.066.051.134.1.202.15.113.084.226.169.341.25.208.144.42.283.633.414.1.062.202.118.302.176.166.096.334.189.503.277.061.031.119.067.179.098zm19.598-1.182c0 1.076-.875 1.95-1.95 1.95H24.35c-.707 0-1.339-.38-1.68-.978.05-.027.095-.06.144-.087.194-.109.384-.226.574-.345.093-.06.188-.114.28-.176.3-.2.593-.41.878-.635a1.275 1.275 0 0 0 1.266 1.155h1.71a1.28 1.28 0 0 0 1.278-1.279V3.412a1.28 1.28 0 0 0-1.278-1.279h-1.71c-.663 0-1.202.509-1.266 1.155a13.417 13.417 0 0 0-.878-.635c-.091-.062-.187-.116-.28-.176-.19-.12-.38-.236-.574-.345-.049-.027-.095-.06-.144-.087a1.926 1.926 0 0 1 1.68-.978h4.633c1.075 0 1.95.874 1.95 1.95v25.966z"/></g></svg>