<svg xmlns="http://www.w3.org/2000/svg" width="24" height="17"><path fill="#FFF" d="M23.585 2.69C23.291 1.416 22.247.474 20.991.333 18.015 0 15.002-.002 12.004 0c-3-.002-6.012 0-8.988.332C1.76.472.716 1.415.423 2.691.005 4.509 0 6.493 0 8.364c0 1.872 0 3.856.418 5.673.294 1.276 1.337 2.218 2.594 2.359 2.976.332 5.988.334 8.987.332 3 .002 6.011 0 8.987-.332 1.256-.141 2.3-1.083 2.594-2.359.419-1.818.42-3.802.42-5.673s.003-3.855-.415-5.673zm-14.682 9.4V4.151c2.543 1.328 5.07 2.646 7.63 3.981l-7.63 3.956z"/></svg>