<svg xmlns="http://www.w3.org/2000/svg" viewBox="0 0 511.996 511.996"><path d="M439.433 154.196H43.082C19.326 154.196 0 173.522 0 197.278v224.025c0 23.755 19.326 43.082 43.082 43.082h396.351c23.755 0 43.082-19.326 43.082-43.082V197.278c0-23.756-19.327-43.082-43.082-43.082zm25.849 267.115c0 14.251-11.598 25.849-25.849 25.849H43.082c-14.251 0-25.849-11.598-25.849-25.849V197.286c0-14.251 11.598-25.849 25.849-25.849h396.351c14.251 0 25.849 11.598 25.849 25.849v224.025z"/><path d="M137.861 197.278H51.698a8.62 8.62 0 0 0-8.616 8.616v68.931a8.613 8.613 0 0 0 8.616 8.616h86.163a8.614 8.614 0 0 0 8.616-8.616v-68.931c.001-4.756-3.859-8.616-8.616-8.616zm-8.616 68.93H60.314V214.51h68.931v51.698z"/><path d="M51.698 231.752h25.849v17.233H51.698zm60.314 0h25.849v17.233h-25.849zm275.723 86.154c-28.511 0-51.698 23.187-51.698 51.698s23.187 51.698 51.698 51.698 51.698-23.187 51.698-51.698-23.186-51.698-51.698-51.698zm0 86.164c-19.008 0-34.465-15.458-34.465-34.465 0-19.008 15.458-34.465 34.465-34.465s34.465 15.458 34.465 34.465c.001 19.007-15.457 34.465-34.465 34.465z"/><path d="M336.037 317.906c-28.511 0-51.698 23.187-51.698 51.698s23.187 51.698 51.698 51.698 51.698-23.187 51.698-51.698-23.186-51.698-51.698-51.698zm0 86.164c-19.008 0-34.465-15.458-34.465-34.465 0-19.008 15.458-34.465 34.465-34.465 19.008 0 34.465 15.458 34.465 34.465.001 19.007-15.457 34.465-34.465 34.465zM43.082 335.139H94.78v17.233H43.082zm86.163 0h51.698v17.233h-51.698zm86.163 0h51.698v17.233h-51.698zM43.082 386.837h224.025v17.233H43.082zm432.609-275.86L84.328 48.163C60.883 44.381 38.748 60.459 35 83.904l-13.872 86.163 17.017 2.74 13.872-86.172c2.249-14.079 15.552-23.712 29.589-21.463l391.363 62.822c14.062 2.232 23.686 15.484 21.481 29.537l-.026.164-29.047 184.725 17.035 2.68 29.02-184.657.026-.155c3.73-23.462-12.314-45.581-35.767-49.311z"/><path d="M310.188 205.903h17.233v34.465h-17.233zm34.466 0h17.233v34.465h-17.233zm34.465 0h17.233v34.465h-17.233zm34.465 0h17.233v34.465h-17.233zm58.862-13.123l2.89-16.986 25.847 4.396-2.89 16.988zM41.637 119.618l2.912-16.984 301.564 51.71-2.912 16.983z"/></svg>