<svg xmlns="http://www.w3.org/2000/svg" width="56" height="67"><g fill="#302C7E"><path d="M55.799 59.641l-8.89-21.414a1.072 1.072 0 0 0-1.979.818l8.036 19.36-7.33-2.12a1.072 1.072 0 0 0-1.237.511l-3.68 6.67-8.623-20.772c9.952-1.915 17.492-10.67 17.492-21.152C49.588 9.664 39.904 0 28 0 16.096 0 6.412 9.664 6.412 21.542a21.4 21.4 0 0 0 4.27 12.85L.202 59.641c-.158.379-.084.815.19 1.121.275.307.702.429 1.097.314l8.648-2.5 4.343 7.87a1.072 1.072 0 0 0 1.928-.107l8.305-20.008a1.072 1.072 0 0 0-1.98-.818l-7.451 17.953-3.681-6.671a1.072 1.072 0 0 0-1.237-.511l-7.33 2.12 9.2-22.163c3.942 4.208 9.551 6.843 15.766 6.843a21.8 21.8 0 0 0 1.904-.085l9.688 23.34a1.071 1.071 0 0 0 1.928.107l4.343-7.87 8.648 2.5a1.069 1.069 0 0 0 1.288-1.436zM8.554 21.542C8.554 10.843 17.278 2.138 28 2.138c10.722 0 19.445 8.705 19.445 19.404 0 10.7-8.723 19.405-19.445 19.405S8.554 32.242 8.554 21.542z"/><path d="M40.38 17.528a1.07 1.07 0 0 0-.842-.724l-7.21-1.207-3.378-6.469a1.072 1.072 0 0 0-1.9 0l-3.379 6.47-7.21 1.206a1.07 1.07 0 0 0-.586 1.804l5.121 5.205-1.077 7.215a1.072 1.072 0 0 0 1.537 1.115L28 28.891l6.544 3.252a1.073 1.073 0 0 0 1.537-1.114l-1.077-7.216 5.122-5.205c.28-.284.377-.7.254-1.08zm-7.28 5.167c-.235.24-.345.575-.295.907l.853 5.712-5.181-2.574a1.074 1.074 0 0 0-.956 0l-5.18 2.574.852-5.712c.05-.332-.06-.668-.295-.907l-4.055-4.121 5.708-.956c.332-.056.618-.263.773-.56L28 11.935l2.675 5.122c.155.297.441.504.773.56l5.708.956-4.055 4.121z"/><path d="M44.23 22.62a1.07 1.07 0 0 0-1.203.92C42.034 31.025 35.573 36.67 28 36.67c-8.36 0-15.16-6.786-15.16-15.128 0-8.341 6.8-15.127 15.16-15.127 7.573 0 14.034 5.644 15.027 13.13a1.07 1.07 0 0 0 2.125-.281C44.017 10.72 36.644 4.277 28 4.277c-9.54 0-17.303 7.745-17.303 17.265 0 9.521 7.762 17.266 17.303 17.266 8.644 0 16.017-6.443 17.152-14.987a1.07 1.07 0 0 0-.922-1.2z"/></g></svg>