<svg xmlns="http://www.w3.org/2000/svg" viewBox="0 0 60 60"><path d="M13.667 30c0-.623.025-1.256.074-1.88a1.001 1.001 0 0 0-.919-1.076 1.009 1.009 0 0 0-1.075.918c-.053.676-.08 1.362-.08 2.037v.021c0 .552.447.989 1 .989s1-.457 1-1.009zm10.651 18.791a16.865 16.865 0 0 1-1.618-.938 1 1 0 1 0-1.096 1.673 18.98 18.98 0 0 0 1.81 1.048 1 1 0 0 0 .904-1.783zm.972-40.189c-.646.242-1.291.526-1.916.845a1 1 0 1 0 .908 1.782 16.526 16.526 0 0 1 1.709-.753 1 1 0 0 0-.701-1.874zm-6.944 4.538c-.482.486-.95 1.006-1.39 1.544a1 1 0 0 0 .774 1.633c.29 0 .578-.125.775-.367.399-.489.823-.96 1.261-1.401a.999.999 0 0 0-.006-1.414.999.999 0 0 0-1.414.005zm-3.296 6.325a.996.996 0 0 0-1.317.514 24.357 24.357 0 0 0-.748 1.929 1.002 1.002 0 0 0 .947 1.322 1 1 0 0 0 .947-.679c.203-.6.434-1.195.686-1.768a1.001 1.001 0 0 0-.515-1.318zm-.695 16.203a1 1 0 1 0-1.941.483c.166.666.363 1.333.585 1.983a1 1 0 1 0 1.892-.647 22.727 22.727 0 0 1-.536-1.819zm3.047 6.899a1 1 0 1 0-1.657 1.12c.392.579.808 1.139 1.238 1.664a.998.998 0 0 0 1.407.139c.428-.351.489-.98.14-1.408-.39-.477-.77-.987-1.128-1.515zM31.5 50.524c-.621 0-1.247-.037-1.857-.11a.998.998 0 0 0-1.112.875 1.001 1.001 0 0 0 .874 1.112c.69.082 1.396.124 2.096.124h.084c.553 0 .958-.448.958-1s-.49-1.001-1.043-1.001zm14.075-33.126a.998.998 0 0 0 1.389.267c.457-.31.577-.932.268-1.389a22.646 22.646 0 0 0-1.242-1.662 1 1 0 0 0-1.545 1.271c.398.485.779.993 1.13 1.513zm-8.177 34.049a1 1 0 0 0 .353-.065c.648-.244 1.293-.53 1.915-.849a1 1 0 1 0-.914-1.779 16.35 16.35 0 0 1-1.706.757.999.999 0 0 0 .352 1.936zm1.248-40.255a16.88 16.88 0 0 1 1.62.933 1.003 1.003 0 0 0 1.384-.291 1 1 0 0 0-.292-1.384 18.705 18.705 0 0 0-1.812-1.044 1 1 0 1 0-.9 1.786zm-7.188-2.715v-1a.981.981 0 0 0-.979 1c0 .552.469 1 1.021 1 .606 0 1.219.036 1.818.105a1 1 0 0 0 .232-1.986c-.677-.079-1.375-.1-2.08-.119l-.012 1zm12.517 38.649a.999.999 0 0 0 .712-.297c.482-.489.948-1.009 1.386-1.546a1 1 0 1 0-1.551-1.262c-.397.488-.82.96-1.259 1.404a.999.999 0 0 0 .712 1.701zM49.333 30c0 .618-.023 1.236-.07 1.839a.999.999 0 1 0 1.994.154c.051-.654.076-1.325.076-1.994v-.064c0-.552-.447-.968-1-.968s-1 .481-1 1.033zm-.698-5.708a1 1 0 1 0 1.94-.486 24.587 24.587 0 0 0-.587-1.982 1 1 0 0 0-1.893.65c.205.596.386 1.208.54 1.818zm-.665 16.206a1 1 0 0 0 1.316-.518c.273-.629.523-1.278.743-1.93a1 1 0 1 0-1.895-.639 22.53 22.53 0 0 1-.683 1.77c-.22.507.013 1.096.519 1.317z"/><path d="M54.344 0h-8.688a5.593 5.593 0 0 0-4.945 2.973C37.819 1.698 34.707 1 31.5 1a22.43 22.43 0 0 0-3.015.21A22.385 22.385 0 0 0 25.5 1c-4.883 0-9.449 1.572-13.33 4.29l-.004.003a26.705 26.705 0 0 0-5.326 4.97c-.047.042-.082.093-.12.143a29.477 29.477 0 0 0-3.792 6.122c-.027.05-.051.1-.07.155a31.249 31.249 0 0 0-1.759 4.895 1.001 1.001 0 0 0-.078.311A32.658 32.658 0 0 0 0 30c0 4.403.871 8.577 2.422 12.319a29.844 29.844 0 0 0 3.514 6.256c.037.051.067.105.113.148a27.268 27.268 0 0 0 4.738 4.94c.051.057.113.099.176.143C15.09 57.076 20.1 59 25.5 59c.972 0 1.953-.072 2.985-.21.989.134 1.994.21 3.015.21 3.207 0 6.319-.698 9.211-1.973A5.594 5.594 0 0 0 45.656 60h8.688A5.663 5.663 0 0 0 60 54.344V5.656A5.663 5.663 0 0 0 54.344 0zM42.249 6.002c.217.129.431.266.645.402.326.209.648.424.964.65.171.121.341.243.509.369.417.315.826.643 1.224.988.061.053.125.102.186.155.295.26.574.542.857.818a25.762 25.762 0 0 1 1.625 1.724c.31.361.605.737.896 1.116.179.234.363.464.535.706l.011.015c.312.438.605.894.893 1.354.066.106.137.208.203.315.07.116.143.229.212.347.352.601.682 1.219.993 1.854v26.367a27.79 27.79 0 0 1-.993 1.854c-.069.118-.142.231-.212.347-.065.107-.136.209-.203.315-.287.46-.58.916-.893 1.354l-.011.015c-.172.242-.356.471-.535.706-.291.38-.586.755-.896 1.116a26.663 26.663 0 0 1-1.625 1.724c-.284.275-.563.558-.857.818-.061.054-.125.102-.186.155-.398.344-.807.673-1.224.988a25.23 25.23 0 0 1-1.473 1.019c-.214.136-.427.273-.645.402-.303.18-.613.345-.923.51C38.293 56.115 34.954 57 31.5 57a20.62 20.62 0 0 1-2.354-.136l-.397-.055-.147-.021a20.908 20.908 0 0 1-1.036-.173l-.073-.015a20.509 20.509 0 0 1-.996-.221l-.13-.035a20.503 20.503 0 0 1-.92-.256c-.082-.025-.162-.054-.243-.08-.265-.084-.529-.17-.789-.265-.185-.067-.367-.142-.549-.214-.156-.061-.313-.119-.467-.184-5.376-2.276-9.834-6.748-12.546-12.464l-.071-.156a27 27 0 0 1-.423-.948c-.053-.125-.102-.252-.153-.378-.102-.25-.202-.501-.297-.755-.06-.161-.117-.324-.175-.487a21.413 21.413 0 0 1-.407-1.226 31.679 31.679 0 0 1-.347-1.227c-.055-.21-.107-.422-.157-.635a23.308 23.308 0 0 1-.266-1.25 41.505 41.505 0 0 1-.114-.614 28.459 28.459 0 0 1-.104-.671c-.03-.201-.06-.401-.086-.604-.031-.24-.055-.483-.08-.725-.02-.189-.042-.377-.058-.567-.024-.278-.04-.558-.056-.839-.009-.158-.022-.314-.029-.472a30.629 30.629 0 0 1-.001-2.657c.007-.158.02-.315.029-.472.016-.28.032-.561.056-.839.016-.19.038-.378.058-.567.025-.242.05-.485.08-.725.026-.202.057-.403.086-.604a24.617 24.617 0 0 1 .218-1.285 27.073 27.073 0 0 1 .423-1.885 28.108 28.108 0 0 1 .752-2.453c.058-.163.114-.326.175-.487.095-.254.196-.505.297-.755.051-.126.1-.253.153-.378.135-.32.277-.635.423-.948l.071-.156c2.712-5.717 7.171-10.189 12.546-12.464.154-.065.311-.122.467-.184.183-.072.365-.147.549-.214.261-.094.525-.181.789-.265.081-.026.162-.055.243-.08.304-.093.611-.177.92-.256l.13-.035c.329-.082.661-.155.996-.221l.073-.015c.343-.066.688-.124 1.036-.173l.147-.021.397-.055A21.427 21.427 0 0 1 31.5 3c3.454 0 6.793.885 9.826 2.492.31.165.619.33.923.51zM48 7.897v-1.5c0-.219.179-.397.397-.397h3.205c.219 0 .398.178.398.397v6.352c-.065-.1-.137-.195-.204-.294-.074-.111-.151-.219-.227-.328-.169-.244-.334-.492-.51-.73-.159-.216-.326-.421-.489-.631l-.232-.296c-.1-.125-.199-.251-.301-.374a29.408 29.408 0 0 0-.711-.815c-.087-.096-.17-.197-.258-.292-.037-.04-.077-.077-.114-.117-.26-.278-.526-.548-.796-.813-.054-.053-.104-.109-.158-.162zm0 44.206c.054-.052.104-.109.158-.162.27-.265.535-.535.796-.813.037-.04.077-.077.114-.117.088-.095.171-.195.258-.292.24-.268.48-.536.711-.815.102-.123.201-.249.301-.374l.232-.296c.164-.21.331-.415.489-.631.176-.238.341-.486.51-.73.076-.109.153-.217.227-.328.066-.099.138-.194.204-.294v6.352a.398.398 0 0 1-.397.397h-3.205a.398.398 0 0 1-.398-.397v-1.5zM4.928 43h3.788c.157.355.319.706.488 1.052.072.148.148.293.222.439.206.404.42.801.642 1.192.081.144.16.289.243.431.177.3.362.593.548.885H7.273A27.666 27.666 0 0 1 4.928 43zm-.46-25h3.827c-.176.438-.342.881-.499 1.329l-.128.368c-.144.43-.278.864-.405 1.303H3.356a29.138 29.138 0 0 1 1.112-3zm3.557-6h3.503c-.122.175-.245.348-.363.526-.296.444-.581.896-.854 1.359-.083.142-.162.287-.243.431-.222.391-.436.789-.642 1.192-.074.146-.15.291-.222.439L9.177 16H5.429a27.214 27.214 0 0 1 2.596-4zM2 30c0-.674.036-1.338.078-2h3.987l-.002.048A34.06 34.06 0 0 0 6 30c0 .335.012.667.022 1H2.039C2.028 30.666 2 30.337 2 30zm4.136 3c.038.421.087.839.141 1.255l.01.092c.074.556.164 1.107.265 1.653H2.608a30.561 30.561 0 0 1-.448-3h3.976zm.62-10c-.026.119-.048.239-.073.358l-.08.392a31.982 31.982 0 0 0-.316 1.903l-.01.092c-.011.085-.018.17-.029.255H2.279c.132-1.018.299-2.022.528-3h3.949zm.239 15c.031.123.06.247.093.37.011.043.021.087.033.13.165.61.35 1.21.549 1.802.041.123.085.245.128.368.038.11.075.22.115.329H4.058a29.312 29.312 0 0 1-.983-3h3.92zM20.919 3.625c-.318.166-.632.338-.943.518-.189.109-.38.216-.566.33A24.92 24.92 0 0 0 18.6 5h-1.926c1.462-.684 2.989-1.224 4.579-1.559-.113.057-.221.125-.334.184zM13.231 7h2.763c-.248.216-.495.434-.735.66-.203.192-.4.391-.598.589-.196.197-.39.396-.58.6-.186.199-.373.396-.554.6-.159.18-.312.366-.466.551H9.759a24.235 24.235 0 0 1 3.472-3zM8.824 49h3.432c.113.148.225.297.341.442.302.379.612.749.931 1.109.181.205.368.402.554.6.191.203.384.403.58.6.081.082.159.169.241.249h-3.008a24.834 24.834 0 0 1-3.071-3zm12.429 7.559c-2.293-.483-4.46-1.369-6.47-2.559h2.419c.125.096.253.187.379.281.213.158.424.317.641.468.389.271.785.531 1.187.778.187.115.377.221.566.33.311.18.625.353.943.518.114.059.222.127.335.184zM58 54.344A3.66 3.66 0 0 1 54.344 58h-8.688a3.612 3.612 0 0 1-3.149-1.835c.092-.05.178-.111.269-.162.364-.204.721-.424 1.076-.648.175-.111.353-.214.526-.329a25.43 25.43 0 0 0 1.646-1.191A2.391 2.391 0 0 0 48.397 56h3.205A2.4 2.4 0 0 0 54 53.603V6.397A2.4 2.4 0 0 0 51.603 4h-3.205a2.392 2.392 0 0 0-2.374 2.165 25.157 25.157 0 0 0-1.646-1.191c-.172-.115-.351-.218-.526-.329a25.143 25.143 0 0 0-1.076-.648c-.091-.051-.177-.112-.269-.162A3.612 3.612 0 0 1 45.656 2h8.688A3.66 3.66 0 0 1 58 5.656v48.688z"/></svg>