<svg xmlns="http://www.w3.org/2000/svg" width="23" height="23"><g fill="#FFF" fill-rule="evenodd"><path d="M19.754 0H3.104A3.107 3.107 0 0 0 0 3.103v16.65a3.107 3.107 0 0 0 3.103 3.104h16.65a3.107 3.107 0 0 0 3.104-3.103V3.104A3.107 3.107 0 0 0 19.754 0zm-8.325 17.012a5.118 5.118 0 0 1-5.112-5.111 5.118 5.118 0 0 1 5.112-5.112A5.118 5.118 0 0 1 16.54 11.9a5.118 5.118 0 0 1-5.111 5.111zm9.493-8.885h-4.619a6.34 6.34 0 0 0-9.75 0H1.936V3.69c0-1.128.918-2.046 2.046-2.046h14.895c1.128 0 2.046.918 2.046 2.046v4.438z"/><path d="M11.429 8.614a3.29 3.29 0 0 0-3.287 3.287 3.29 3.29 0 0 0 3.287 3.286 3.29 3.29 0 0 0 3.286-3.286 3.29 3.29 0 0 0-3.286-3.287zm6.974-5.659h-1.978a.82.82 0 0 0-.82.82v1.978c0 .452.368.82.82.82h1.978a.82.82 0 0 0 .82-.82V3.775a.82.82 0 0 0-.82-.82z"/></g></svg>