<svg xmlns="http://www.w3.org/2000/svg" width="32" height="32"><g fill="#302C7E"><path d="M10.2 15.807c.017.017.036.028.053.043.326.319.677.61 1.057.867.043.03.09.053.136.083.363.234.743.442 1.145.612.048.02.097.034.145.053.408.163.83.295 1.27.385.027.005.054.007.08.012.458.088.93.138 1.414.138.484 0 .956-.05 1.414-.138.027-.005.055-.007.08-.012a7.376 7.376 0 0 0 1.273-.385c.046-.019.094-.032.14-.051a7.48 7.48 0 0 0 1.154-.617c.04-.027.084-.049.125-.076a7.6 7.6 0 0 0 1.076-.884l.037-.03c.001-.001.001-.005.004-.007A7.482 7.482 0 0 0 23 10.5C23 6.364 19.636 3 15.5 3S8 6.364 8 10.5c0 2.066.84 3.938 2.195 5.296.003.003.003.009.006.011zm8.985-.432c-.144.108-.285.217-.437.31-.123.076-.253.139-.382.207-1.772.91-3.96.91-5.732 0-.129-.068-.26-.131-.382-.207-.152-.093-.293-.202-.437-.31a6.258 6.258 0 0 1-.312-.258 4.416 4.416 0 0 1 3.997-2.571 4.42 4.42 0 0 1 3.998 2.571 6.296 6.296 0 0 1-.313.258zm-5.73-6.239c0-1.127.917-2.045 2.045-2.045s2.045.918 2.045 2.045a2.048 2.048 0 0 1-2.045 2.046 2.048 2.048 0 0 1-2.045-2.046zM15.5 4.364a6.144 6.144 0 0 1 6.136 6.136 6.084 6.084 0 0 1-1.161 3.565 5.835 5.835 0 0 0-2.711-2.399 3.39 3.39 0 0 0 1.145-2.53A3.414 3.414 0 0 0 15.5 5.727c-1.88 0-3.41 1.53-3.41 3.41a3.39 3.39 0 0 0 1.146 2.529 5.808 5.808 0 0 0-2.71 2.399A6.084 6.084 0 0 1 9.363 10.5 6.144 6.144 0 0 1 15.5 4.364zM9.805 22.195a.667.667 0 0 0-.943 0l-.861.862-.862-.862a.667.667 0 0 0-.943.943l.86.861-.861.862a.667.667 0 0 0 .943.944L8 24.944l.861.861a.67.67 0 0 0 .943 0 .667.667 0 0 0 0-.943L8.944 24l.861-.861a.667.667 0 0 0 0-.943z"/><path d="M28.522 0H3.478A3.483 3.483 0 0 0 0 3.478v25.044A3.483 3.483 0 0 0 3.478 32h25.044A3.483 3.483 0 0 0 32 28.522V3.478A3.483 3.483 0 0 0 28.522 0zm2.087 28.522a2.09 2.09 0 0 1-2.087 2.087H3.478a2.09 2.09 0 0 1-2.087-2.087V3.478a2.09 2.09 0 0 1 2.087-2.087h25.044a2.09 2.09 0 0 1 2.087 2.087v25.044z"/><path d="M25.579 19H6.421C4.535 19 3 20.603 3 22.571v2.858C3 27.397 4.535 29 6.421 29h19.158C27.465 29 29 27.397 29 25.429V22.57c0-1.967-1.535-3.57-3.421-3.57zm2.053 6.429c0 1.181-.921 2.142-2.053 2.142H6.421c-1.132 0-2.053-.961-2.053-2.142V22.57c0-1.181.921-2.142 2.053-2.142h19.158c1.132 0 2.053.961 2.053 2.142v2.858z"/><path d="M25.805 22.195a.667.667 0 0 0-.943 0l-.861.862-.862-.862a.667.667 0 0 0-.943.943l.86.861-.861.862a.667.667 0 0 0 .943.944l.863-.861.861.861a.67.67 0 0 0 .943 0 .667.667 0 0 0 0-.943L24.944 24l.861-.861a.667.667 0 0 0 0-.943zm-11 0a.667.667 0 0 0-.943 0l-.861.862-.862-.862a.667.667 0 0 0-.943.943l.86.861-.861.862a.667.667 0 0 0 .943.944l.863-.861.861.861a.67.67 0 0 0 .943 0 .667.667 0 0 0 0-.943L13.944 24l.861-.861a.667.667 0 0 0 0-.943zm6 0a.667.667 0 0 0-.943 0l-.861.862-.862-.862a.667.667 0 0 0-.943.943l.86.862-.861.861a.667.667 0 0 0 .943.944l.863-.861.861.861a.67.67 0 0 0 .943 0 .667.667 0 0 0 0-.943L19.944 24l.861-.861a.667.667 0 0 0 0-.943z"/></g></svg>