<svg xmlns="http://www.w3.org/2000/svg" width="32" height="27"><g fill="#302C7E"><path d="M27.465 6.7H2.693A2.696 2.696 0 0 0 0 9.392v14.002a2.696 2.696 0 0 0 2.693 2.693h24.772a2.696 2.696 0 0 0 2.692-2.693V9.392A2.696 2.696 0 0 0 27.465 6.7zm1.615 16.694c0 .891-.725 1.616-1.615 1.616H2.693a1.618 1.618 0 0 1-1.616-1.616V9.393c0-.89.725-1.616 1.616-1.616h24.772c.89 0 1.615.725 1.615 1.616v14.001z"/><path d="M8.616 9.392H3.231a.539.539 0 0 0-.538.539v4.308c0 .298.24.539.538.539h5.385a.539.539 0 0 0 .539-.539V9.931a.539.539 0 0 0-.539-.539zm-.538 4.309H3.77v-3.232h4.308v3.232z"/><path d="M3.231 11.547h1.616v1.077H3.231zm3.77 0h1.616v1.077H7.001zm17.232 5.385a3.234 3.234 0 0 0-3.23 3.23 3.234 3.234 0 0 0 3.23 3.232 3.234 3.234 0 0 0 3.232-3.231 3.234 3.234 0 0 0-3.232-3.231zm0 5.385a2.156 2.156 0 0 1-2.154-2.154c0-1.188.966-2.154 2.154-2.154s2.154.966 2.154 2.154a2.156 2.156 0 0 1-2.154 2.154z"/><path d="M21.002 16.932a3.234 3.234 0 0 0-3.23 3.23 3.234 3.234 0 0 0 3.23 3.232 3.234 3.234 0 0 0 3.231-3.231 3.234 3.234 0 0 0-3.23-3.231zm0 5.385a2.156 2.156 0 0 1-2.154-2.154c0-1.188.966-2.154 2.154-2.154s2.154.966 2.154 2.154a2.156 2.156 0 0 1-2.154 2.154zM2.693 18.009h3.231v1.077H2.693zm5.385 0h3.231v1.077H8.078zm5.385 0h3.231v1.077h-3.231zM2.693 21.24h14.002v1.077H2.693zM29.73 3.999L5.27.073a2.694 2.694 0 0 0-3.082 2.234L1.32 7.691l1.064.17.867-5.385c.14-.88.972-1.482 1.85-1.341l24.46 3.926c.878.14 1.48.968 1.342 1.846 0 .003 0 .007-.002.01l-1.815 11.546 1.065.167 1.814-11.54.001-.01a2.695 2.695 0 0 0-2.235-3.082z"/><path d="M19.387 9.931h1.077v2.154h-1.077zm2.154 0h1.077v2.154h-1.077zm2.154 0h1.077v2.154h-1.077zm2.154 0h1.077v2.154h-1.077zm3.679-.819l.18-1.062 1.617.275-.181 1.062zM2.602 4.538l.182-1.061 18.848 3.232-.182 1.061z"/></g></svg>